<svg width="106" height="70" fill="none" xmlns="http://www.w3.org/2000/svg"><path d="M48.906 70H1V59.922l17.203-17.39c5.094-5.22 8.422-8.829 9.985-10.829 1.562-2.031 2.687-3.906 3.375-5.625a14.26 14.26 0 001.03-5.344c0-2.75-.765-4.797-2.296-6.14-1.5-1.344-3.516-2.016-6.047-2.016-2.656 0-5.234.61-7.734 1.828-2.5 1.219-5.11 2.953-7.828 5.203L.811 10.281c3.375-2.875 6.172-4.906 8.391-6.094C11.422 3 13.843 2.095 16.47 1.47c2.624-.658 5.56-.986 8.81-.986 4.282 0 8.063.782 11.344 2.344 3.281 1.563 5.828 3.75 7.64 6.563 1.813 2.812 2.72 6.03 2.72 9.656 0 3.156-.563 6.125-1.688 8.906-1.094 2.75-2.813 5.578-5.156 8.485-2.313 2.906-6.407 7.046-12.282 12.421l-8.812 8.297v.657h29.86V70zm56.391-14.203h-8.25V70H82.89V55.797H53.64V45.719l30.047-44.25h13.359v43.078h8.25v11.25zm-22.406-11.25V32.922c0-1.938.078-4.75.234-8.438.156-3.687.281-5.828.375-6.422h-.375a52.27 52.27 0 01-4.172 7.5L66.391 44.547h16.5z" fill="#D22856"/></svg>