<svg width="40" height="40" fill="none" xmlns="http://www.w3.org/2000/svg"><path d="M20 .625C9.297.625.625 9.297.625 20S9.297 39.375 20 39.375 39.375 30.703 39.375 20 30.703.625 20 .625zM36.875 20c0 9.297-7.578 16.875-16.875 16.875S3.125 29.375 3.125 20c0-9.219 7.5-16.875 16.875-16.875 9.219 0 16.875 7.578 16.875 16.875zm-11.64 6.953c.39.313 1.015.156 1.25-.234l.703-.86c.312-.468.156-1.015-.235-1.328l-5.469-3.984V9.062c0-.468-.468-.937-.937-.937h-1.094c-.547 0-.937.469-.937.938v12.5c0 .312.078.546.312.78l6.406 4.61z" fill="#3CC6F1"/></svg>