<svg width="32" height="32" fill="none" xmlns="http://www.w3.org/2000/svg"><path opacity=".5" d="M16 2.667c3.623 0 4.075.013 5.496.08 1.42.067 2.387.29 3.237.62.88.339 1.622.797 2.363 1.537a6.543 6.543 0 011.537 2.363c.33.85.554 1.817.62 3.237.063 1.422.08 1.874.08 5.496 0 3.623-.013 4.075-.08 5.496-.066 1.42-.29 2.387-.62 3.238a6.511 6.511 0 01-1.537 2.362 6.554 6.554 0 01-2.363 1.538c-.849.329-1.817.553-3.237.62-1.421.062-1.873.08-5.496.08s-4.075-.014-5.496-.08c-1.42-.067-2.387-.291-3.237-.62a6.52 6.52 0 01-2.363-1.538 6.539 6.539 0 01-1.537-2.362c-.331-.85-.554-1.818-.62-3.238-.063-1.421-.08-1.873-.08-5.496 0-3.622.013-4.074.08-5.496.066-1.421.289-2.386.62-3.237a6.507 6.507 0 011.537-2.363 6.53 6.53 0 012.363-1.537c.85-.33 1.816-.553 3.237-.62 1.421-.063 1.873-.08 5.496-.08zm0 6.667a6.667 6.667 0 100 13.333 6.667 6.667 0 000-13.333zM24.667 9a1.667 1.667 0 10-3.334 0 1.667 1.667 0 003.334 0zM16 12a4 4 0 110 8.001 4 4 0 010-8z" fill="#fff"/></svg>