<svg width="30" height="41" fill="none" xmlns="http://www.w3.org/2000/svg"><path d="M15 7.5c-4.14 0-7.5 3.438-7.5 7.5 0 4.14 3.36 7.5 7.5 7.5 4.063 0 7.5-3.36 7.5-7.5 0-4.063-3.438-7.5-7.5-7.5zM15 20c-2.813 0-5-2.188-5-5 0-2.734 2.188-5 5-5 2.734 0 5 2.266 5 5 0 2.813-2.266 5-5 5zm0-20C6.64 0 0 6.719 0 15c0 6.094 2.031 7.813 13.438 24.219.703 1.093 2.343 1.093 3.046 0C27.891 22.812 30 21.094 30 15c0-8.281-6.719-15-15-15zm0 37.031C4.062 21.328 2.5 20.078 2.5 15c0-3.281 1.25-6.406 3.594-8.828C8.516 3.828 11.64 2.5 15 2.5c3.281 0 6.406 1.328 8.828 3.672C26.172 8.594 27.5 11.719 27.5 15c0 5.078-1.64 6.328-12.5 22.031z" fill="#3CC6F1"/></svg>