<svg width="41" height="41" fill="none" xmlns="http://www.w3.org/2000/svg"><path d="M21.161 22.483v9.258h11.904v-9.258H21.16zm10.581 3.968h-3.968v-2.645h3.968v2.645zm-5.29-2.645v2.645h-3.968v-2.645h3.968zm-3.968 3.968h3.968v2.645h-3.968v-2.645zm5.29 2.645v-2.645h3.968v2.645h-3.968zm-17.194 0h5.29V26.45h-5.29v3.968zm1.323-2.645h2.645v1.322h-2.645v-1.322z" fill="#fff"/><path d="M38.246 23.806A2.757 2.757 0 0041 21.053v-.62a2.75 2.75 0 00-1.458-2.43l-3.832-2.044V0H5.29v15.959l-3.832 2.044A2.75 2.75 0 000 20.433v.62a2.757 2.757 0 002.754 2.753c.42 0 .836-.102 1.214-.289v13.515h-.662A3.31 3.31 0 000 40.34V41h41v-.661a3.31 3.31 0 00-3.306-3.307h-.662V23.518c.378.186.793.288 1.214.288zM6.613 1.323h27.774v13.93l-2.645-1.41V3.968h-7.794c.055-.508-.032-.946-.47-1.2-.762-.44-1.476.318-2.167 1.052-.234.247-.607.644-.811.775-.204-.13-.577-.527-.81-.776-.693-.733-1.41-1.491-2.168-1.05-.437.253-.525.69-.47 1.199H9.258v9.875l-2.645 1.41V1.323zM17.368 5.29c.091.307.218.74.238.966-.216.097-.686.206-.984.276-1.02.238-2.074.484-2.074 1.403 0 .92 1.055 1.166 2.073 1.404.21.049.5.117.731.187l-6.771 3.612V5.29h6.787zm1.246 5.74c.252-.844.47-1.571.167-2.1-.297-.514-1.02-.683-1.86-.879-.136-.032-.307-.072-.476-.116.169-.043.34-.083.477-.115.838-.196 1.561-.365 1.859-.88.304-.528.085-1.255-.167-2.099-.03-.098-.065-.216-.1-.338.077.08.15.156.212.223.616.653 1.146 1.218 1.774 1.218.628 0 1.159-.565 1.774-1.218.062-.067.135-.143.211-.223l-.099.339c-.252.843-.47 1.57-.167 2.098.297.515 1.02.684 1.86.88.136.032.307.072.476.115-.169.044-.34.084-.477.116-.838.196-1.561.365-1.859.88-.304.528-.085 1.255.167 2.099.03.098.065.216.1.338a20.56 20.56 0 01-.212-.223c-.615-.653-1.146-1.218-1.774-1.218-.628 0-1.159.565-1.774 1.218-.062.067-.135.143-.211.223l.099-.339zm5.035-1.504c.23-.07.52-.138.729-.187 1.02-.238 2.074-.484 2.074-1.404 0-.919-1.055-1.165-2.073-1.403-.299-.07-.769-.179-.985-.276.02-.226.147-.659.238-.966h6.787v7.847l-6.77-3.611zM2.754 22.484a1.433 1.433 0 01-1.431-1.431v-.62c0-.53.29-1.013.757-1.263l15.138-8.072c-.231.832-.352 1.623.304 2.005a.91.91 0 00.464.13c.59 0 1.154-.598 1.703-1.18.234-.249.608-.646.812-.777.203.13.577.527.81.776.692.733 1.408 1.489 2.168 1.05.657-.38.535-1.172.304-2.005L38.92 19.17c.467.25.757.734.757 1.262v.62a1.433 1.433 0 01-2.137 1.245L20.5 12.618 3.46 22.297c-.215.122-.46.187-.706.187zm36.81 17.193H1.436a1.988 1.988 0 011.87-1.322h34.388c.862 0 1.597.553 1.87 1.322zM9.258 33.065h1.323v-1.323H9.258v-4.63c0-1.093.89-1.983 1.984-1.983h3.968c1.093 0 1.983.89 1.983 1.984v9.92H9.259v-3.968zm9.258 3.967v-9.92a3.31 3.31 0 00-3.306-3.305h-3.968a3.31 3.31 0 00-3.307 3.306v9.92H5.29V22.777l15.21-8.639 15.21 8.639v14.254H18.516z" fill="#fff"/></svg>