<svg width="65" height="65" fill="none" xmlns="http://www.w3.org/2000/svg"><path d="M33.548 35.645v14.678H52.42V35.645H33.55zm16.774 6.29h-6.29v-4.193h6.29v4.194zm-8.387-4.193v4.194h-6.29v-4.194h6.29zm-6.29 6.29h6.29v4.194h-6.29v-4.193zm8.387 4.194v-4.193h6.29v4.193h-6.29zm-27.258 0h8.387v-6.29h-8.387v6.29zm2.097-4.194h4.194v2.097H18.87v-2.097z" fill="#fff"/><path d="M60.634 37.742A4.37 4.37 0 0065 33.376v-.983a4.361 4.361 0 00-2.31-3.853l-6.077-3.24V0H8.387v25.3l-6.076 3.241A4.358 4.358 0 000 32.393v.983a4.37 4.37 0 004.366 4.366 4.35 4.35 0 001.924-.458V58.71H5.242A5.248 5.248 0 000 63.952V65h65v-1.048a5.248 5.248 0 00-5.242-5.242H58.71V37.285a4.364 4.364 0 001.924.457zM10.484 2.097h44.032v22.085l-4.193-2.236V6.29H37.967c.087-.805-.052-1.5-.745-1.9-1.209-.7-2.341.503-3.436 1.665-.37.392-.963 1.023-1.286 1.23-.323-.207-.915-.837-1.285-1.23-1.098-1.163-2.234-2.365-3.437-1.666-.692.402-.831 1.096-.744 1.901H14.677v15.656l-4.193 2.236V2.097zm17.05 6.29c.145.486.346 1.172.377 1.532-.34.153-1.086.326-1.559.436-1.616.377-3.288.767-3.288 2.226 0 1.457 1.672 1.848 3.287 2.224.332.078.793.187 1.159.297l-10.736 5.726V8.388h10.76zm1.976 9.098c.4-1.336.746-2.49.264-3.327-.47-.815-1.617-1.083-2.947-1.394-.217-.051-.488-.114-.756-.183.268-.07.539-.133.757-.184 1.329-.31 2.475-.579 2.946-1.395.482-.836.136-1.989-.264-3.327a28.521 28.521 0 01-.157-.536c.121.127.237.248.335.354.975 1.034 1.817 1.93 2.812 1.93.995 0 1.837-.896 2.813-1.931l.334-.353c-.055.194-.11.379-.157.537-.4 1.336-.746 2.49-.264 3.327.47.815 1.617 1.084 2.947 1.394.217.052.488.114.755.184-.267.069-.538.133-.756.183-1.328.31-2.475.579-2.946 1.395-.482.836-.136 1.99.264 3.327.047.156.103.343.157.537a33.883 33.883 0 01-.335-.354c-.975-1.035-1.817-1.93-2.812-1.93-.995 0-1.837.895-2.813 1.93l-.334.354c.055-.194.11-.38.157-.538zm7.982-2.383c.365-.11.824-.218 1.156-.296 1.616-.377 3.287-.767 3.287-2.225 0-1.458-1.67-1.849-3.286-2.225-.473-.11-1.218-.284-1.56-.437.03-.36.232-1.046.377-1.532h10.76v12.44l-10.734-5.725zM4.366 35.645a2.272 2.272 0 01-2.27-2.269v-.983c0-.84.461-1.606 1.202-2.002l23.999-12.797c-.367 1.32-.559 2.574.482 3.179.247.143.494.207.735.207.936 0 1.83-.95 2.7-1.873.372-.393.964-1.023 1.287-1.23.323.207.915.836 1.285 1.23 1.097 1.162 2.232 2.36 3.437 1.666 1.041-.605.848-1.86.481-3.18l23.999 12.799c.74.395 1.2 1.163 1.2 2.001v.983a2.272 2.272 0 01-3.388 1.973L32.5 20.004 5.486 35.348c-.341.194-.73.297-1.12.297zm58.358 27.258H2.276a3.151 3.151 0 012.966-2.097h54.516c1.367 0 2.533.877 2.966 2.097zM14.677 52.42h2.097v-2.096h-2.097v-7.34a3.15 3.15 0 013.146-3.144h6.29a3.15 3.15 0 013.145 3.145V58.71h-12.58v-6.29zm14.678 6.29V42.985a5.248 5.248 0 00-5.242-5.242h-6.29a5.248 5.248 0 00-5.242 5.242V58.71H8.387v-22.6L32.5 22.416l24.113 13.697V58.71H29.355z" fill="#fff"/></svg>