<svg width="40" height="40" fill="none" xmlns="http://www.w3.org/2000/svg"><path d="M38.516 27.5L30 23.828a3.923 3.923 0 00-.938-.156c-.625 0-1.484.39-1.875.86L23.75 28.75c-4.61-2.266-10.234-7.813-12.5-12.5l4.219-3.438c.469-.39.86-1.25.86-1.874 0-.235-.079-.704-.157-.938L12.5 1.484C12.187.704 11.172.078 10.312.078h-.546L1.875 1.953C.781 2.187 0 3.203 0 4.297 0 24.062 16.016 40 35.703 40c1.094 0 2.11-.781 2.422-1.875l1.797-7.89v-.547c0-.86-.625-1.875-1.406-2.188zm-2.891 10C17.344 37.5 2.5 22.656 2.5 4.375l7.734-1.797 3.594 8.36-5.703 4.687c3.828 8.047 8.203 12.422 16.328 16.25l4.61-5.703 8.359 3.594-1.797 7.734z" fill="#3CC6F1"/></svg>