<svg width="40" height="28" fill="none" xmlns="http://www.w3.org/2000/svg"><path d="M39 25H22.625C25.875 22.437 28 18.5 28 14c0-7.688-6.313-14-14-14C6.25 0 0 6.313 0 14c0 7.75 6.25 14 14 14h25c.5 0 1-.438 1-1v-1c0-.5-.5-1-1-1zm-25 0C7.937 25 3 20.062 3 14 3 7.937 7.938 3 14 3c6.063 0 11 4.938 11 11 0 6.063-4.938 11-11 11zm0-17c-3.313 0-6 2.688-6 6 0 3.313 2.688 6 6 6 3.313 0 6-2.688 6-6 0-3.313-2.688-6-6-6zm0 9c-1.688 0-3-1.313-3-3a3 3 0 013-3c1.625 0 3 1.375 3 3a3 3 0 01-3 3z" fill="#fff"/></svg>