<svg width="125" height="140" viewBox="0 0 125 140" fill="none" xmlns="http://www.w3.org/2000/svg">
<g opacity="0.15">
<path opacity="0.15" d="M111.46 11.1426H64.53V126.482H111.46V11.1426Z" fill="url(#paint0_linear)"/>
</g>
<path d="M110.352 12.4648L109.469 13.6394" stroke="#424242" stroke-width="0.875193" stroke-linecap="round" stroke-linejoin="round"/>
<path d="M107.753 15.9199L67.3541 69.5369" stroke="#424242" stroke-width="0.875193" stroke-linecap="round" stroke-linejoin="round" stroke-dasharray="5.12 5.12"/>
<path d="M66.4937 70.6797L65.616 71.8489L66.5459 72.96" stroke="#424242" stroke-width="0.875193" stroke-linecap="round" stroke-linejoin="round"/>
<path d="M68.4097 75.1816L108.509 122.942" stroke="#424242" stroke-width="0.875193" stroke-linecap="round" stroke-linejoin="round" stroke-dasharray="5.25 5.25"/>
<path d="M109.438 124.053L110.373 125.159" stroke="#424242" stroke-width="0.875193" stroke-linecap="round" stroke-linejoin="round"/>
<path d="M65.616 125.16L65.9202 123.62" stroke="#424242" stroke-width="0.875193" stroke-linecap="round" stroke-linejoin="round"/>
<path d="M66.5405 120.486L87.3768 15.5752" stroke="#424242" stroke-width="0.875193" stroke-linecap="round" stroke-linejoin="round" stroke-dasharray="5.33 5.33"/>
<path d="M87.6868 14.0098L87.9953 12.4648L88.2995 14.0098" stroke="#424242" stroke-width="0.875193" stroke-linecap="round" stroke-linejoin="round"/>
<path d="M88.9197 17.1426L109.756 122.054" stroke="#424242" stroke-width="0.875193" stroke-linecap="round" stroke-linejoin="round" stroke-dasharray="5.33 5.33"/>
<path d="M110.066 123.62L110.374 125.16" stroke="#424242" stroke-width="0.875193" stroke-linecap="round" stroke-linejoin="round"/>
<g opacity="0.15">
<path opacity="0.15" d="M58.4453 10.7344H13.0315V126.963H58.4453V10.7344Z" fill="url(#paint1_linear)"/>
</g>
<path d="M8.2514 4.91504V132.709H116.743V4.91504H8.2514ZM57.3545 125.545H14.1177V12.1317H57.3589L57.3545 125.545ZM112.759 128.069H63.2208V8.88843H112.759V128.069Z" fill="#E6E6E6"/>
<path d="M115.152 6.63965H60.8345L65.6144 12.4648H110.35L115.152 6.63965Z" fill="url(#paint2_linear)"/>
<path d="M60.8345 6.64551V130.98L65.6144 125.16V12.4654L60.8345 6.64551Z" fill="url(#paint3_linear)"/>
<path d="M60.8345 130.985H115.152L110.372 125.16H65.6318L60.8345 130.985Z" fill="url(#paint4_linear)"/>
<path d="M115.153 130.98V6.64551L110.373 12.4707V125.16L115.153 130.98Z" fill="url(#paint5_linear)"/>
<path d="M57.1855 12.3435V125.355H14.292V12.3435H57.1855ZM57.3593 12.1318H14.1182V125.567H57.3593V12.1318Z" fill="#4D4D4D"/>
<path d="M110.2 12.698V124.969H65.7898V12.698H110.2ZM110.374 12.4863H65.616V125.18H110.374V12.4863Z" fill="#4D4D4D"/>
<path d="M111.46 11.1426H64.53V126.482H111.46V11.1426Z" stroke="#CCCCCC" stroke-width="0.175039" stroke-miterlimit="10"/>
<path d="M65.6144 12.4655L60.8345 6.64551" stroke="#CCCCCC" stroke-width="0.175039" stroke-miterlimit="10"/>
<path d="M110.373 12.4655L115.153 6.64551" stroke="#CCCCCC" stroke-width="0.175039" stroke-miterlimit="10"/>
<path d="M65.6144 125.16L60.8345 130.98" stroke="#CCCCCC" stroke-width="0.175039" stroke-miterlimit="10"/>
<path d="M110.373 125.16L115.153 130.98" stroke="#CCCCCC" stroke-width="0.175039" stroke-miterlimit="10"/>
<path d="M110.374 12.4648H65.616V125.159H110.374V12.4648Z" stroke="#CCCCCC" stroke-width="0.175039" stroke-miterlimit="10"/>
<path d="M114.978 6.87862V130.789H61.0083V6.87862H114.978ZM115.152 6.66699H60.8345V131.001H115.152V6.66699Z" fill="#CCCCCC"/>
<path d="M57.3593 12.1318H14.1182V125.567H57.3593V12.1318Z" stroke="#CCCCCC" stroke-width="0.175039" stroke-miterlimit="10"/>
<path d="M58.4453 10.7344H13.0315V126.963H58.4453V10.7344Z" stroke="#CCCCCC" stroke-width="0.175039" stroke-miterlimit="10"/>
<path d="M14.1177 12.1317L8.2514 4.91504" stroke="#CCCCCC" stroke-width="0.175039" stroke-miterlimit="10"/>
<path d="M60.836 10.7344H58.446" stroke="#CCCCCC" stroke-width="0.175039" stroke-miterlimit="10"/>
<path d="M14.1177 125.493L8.2514 132.71" stroke="#CCCCCC" stroke-width="0.175039" stroke-miterlimit="10"/>
<path d="M60.836 126.963H58.446" stroke="#CCCCCC" stroke-width="0.175039" stroke-miterlimit="10"/>
<path d="M63.4608 65.3252H61.8704C61.6616 65.3252 61.4923 65.5313 61.4923 65.7855V72.6265C61.4923 72.8807 61.6616 73.0868 61.8704 73.0868H63.4608C63.6696 73.0868 63.8388 72.8807 63.8388 72.6265V65.7855C63.8388 65.5313 63.6696 65.3252 63.4608 65.3252Z" fill="#F2F2F2" stroke="#BDBDBD" stroke-width="0.175039" stroke-miterlimit="10"/>
<path d="M63.0859 66.1875H62.2429C62.0869 66.1875 61.9604 66.3415 61.9604 66.5314V77.1713C61.9604 77.3612 62.0869 77.5152 62.2429 77.5152H63.0859C63.2419 77.5152 63.3683 77.3612 63.3683 77.1713V66.5314C63.3683 66.3415 63.2419 66.1875 63.0859 66.1875Z" fill="#F2F2F2" stroke="#BDBDBD" stroke-width="0.175039" stroke-miterlimit="10"/>
<path d="M116.749 4.91515H8.25259L3.34662 0H121.655L116.749 4.91515Z" fill="url(#paint6_linear)"/>
<path d="M8.25259 4.91515V132.709L3.34662 135.513V0L8.25259 4.91515Z" fill="url(#paint7_linear)"/>
<path d="M8.25259 132.709H116.749L121.655 135.513H3.34662L8.25259 132.709Z" fill="url(#paint8_linear)"/>
<path d="M116.748 132.709V4.91515L121.654 0V135.513L116.748 132.709Z" fill="url(#paint9_linear)"/>
<path d="M125 135.514H0V140H125V135.514Z" fill="url(#paint10_linear)"/>
<path d="M115.771 12.6445H115.389C115.259 12.6445 115.154 12.7724 115.154 12.9302V19.6496C115.154 19.8074 115.259 19.9353 115.389 19.9353H115.771C115.901 19.9353 116.006 19.8074 116.006 19.6496V12.9302C116.006 12.7724 115.901 12.6445 115.771 12.6445Z" fill="url(#paint11_linear)"/>
<path d="M115.771 117.033H115.389C115.259 117.033 115.154 117.161 115.154 117.319V124.038C115.154 124.196 115.259 124.324 115.389 124.324H115.771C115.901 124.324 116.006 124.196 116.006 124.038V117.319C116.006 117.161 115.901 117.033 115.771 117.033Z" fill="url(#paint12_linear)"/>
<defs>
<linearGradient id="paint0_linear" x1="105.959" y1="128.921" x2="55.5365" y2="15.1297" gradientUnits="userSpaceOnUse">
<stop stop-color="#CCE0F4"/>
<stop offset="0.12" stop-color="#C3DEF4"/>
<stop offset="0.33" stop-color="#A9DAF4"/>
<stop offset="0.59" stop-color="#80D3F4"/>
<stop offset="0.9" stop-color="#47C8F3"/>
<stop offset="1" stop-color="#33C5F3"/>
</linearGradient>
<linearGradient id="paint1_linear" x1="5924.55" y1="28361.1" x2="-9014.92" y2="12323.5" gradientUnits="userSpaceOnUse">
<stop stop-color="#CCE0F4"/>
<stop offset="0.12" stop-color="#C3DEF4"/>
<stop offset="0.33" stop-color="#A9DAF4"/>
<stop offset="0.59" stop-color="#80D3F4"/>
<stop offset="0.9" stop-color="#47C8F3"/>
<stop offset="1" stop-color="#33C5F3"/>
</linearGradient>
<linearGradient id="paint2_linear" x1="87.9933" y1="12.4648" x2="87.9933" y2="6.63965" gradientUnits="userSpaceOnUse">
<stop stop-color="#E6E6E6"/>
<stop offset="0.63" stop-color="#E4E4E4"/>
<stop offset="0.86" stop-color="#DDDDDD"/>
<stop offset="1" stop-color="#D4D4D4"/>
</linearGradient>
<linearGradient id="paint3_linear" x1="-10380.9" y1="-1142.42" x2="-11504.1" y2="-1142.42" gradientUnits="userSpaceOnUse">
<stop stop-color="#E6E6E6"/>
<stop offset="0.63" stop-color="#E4E4E4"/>
<stop offset="0.86" stop-color="#DDDDDD"/>
<stop offset="1" stop-color="#D4D4D4"/>
</linearGradient>
<linearGradient id="paint4_linear" x1="-20147.3" y1="1216.28" x2="-20147.3" y2="1280.41" gradientUnits="userSpaceOnUse">
<stop stop-color="#E6E6E6"/>
<stop offset="0.63" stop-color="#E4E4E4"/>
<stop offset="0.86" stop-color="#DDDDDD"/>
<stop offset="1" stop-color="#D4D4D4"/>
</linearGradient>
<linearGradient id="paint5_linear" x1="-6256.33" y1="2680.04" x2="-5133.05" y2="2680.04" gradientUnits="userSpaceOnUse">
<stop stop-color="#E6E6E6"/>
<stop offset="0.63" stop-color="#E4E4E4"/>
<stop offset="0.86" stop-color="#DDDDDD"/>
<stop offset="1" stop-color="#D4D4D4"/>
</linearGradient>
<linearGradient id="paint6_linear" x1="62.5007" y1="0" x2="62.5007" y2="4.91515" gradientUnits="userSpaceOnUse">
<stop stop-color="#E6E6E6"/>
<stop offset="1" stop-color="#C9C9C9"/>
</linearGradient>
<linearGradient id="paint7_linear" x1="3117.53" y1="-465.187" x2="4374.1" y2="-465.187" gradientUnits="userSpaceOnUse">
<stop stop-color="#E6E6E6"/>
<stop offset="1" stop-color="#C9C9C9"/>
</linearGradient>
<linearGradient id="paint8_linear" x1="-10725.6" y1="639.91" x2="-10725.6" y2="625.048" gradientUnits="userSpaceOnUse">
<stop stop-color="#E6E6E6"/>
<stop offset="1" stop-color="#C9C9C9"/>
</linearGradient>
<linearGradient id="paint9_linear" x1="3534.09" y1="2263.38" x2="2276.4" y2="2263.38" gradientUnits="userSpaceOnUse">
<stop stop-color="#E6E6E6"/>
<stop offset="1" stop-color="#C9C9C9"/>
</linearGradient>
<linearGradient id="paint10_linear" x1="62.5" y1="135.514" x2="62.5" y2="140" gradientUnits="userSpaceOnUse">
<stop stop-color="#F2F2F2"/>
<stop offset="0.75" stop-color="#D4D4D4"/>
<stop offset="1" stop-color="#C9C9C9"/>
</linearGradient>
<linearGradient id="paint11_linear" x1="348.056" y1="237.126" x2="346.395" y2="237.126" gradientUnits="userSpaceOnUse">
<stop stop-color="#E6E6E6"/>
<stop offset="1" stop-color="#C9C9C9"/>
</linearGradient>
<linearGradient id="paint12_linear" x1="348.056" y1="1779.98" x2="346.395" y2="1779.98" gradientUnits="userSpaceOnUse">
<stop stop-color="#E6E6E6"/>
<stop offset="1" stop-color="#C9C9C9"/>
</linearGradient>
</defs>
</svg>
