<svg width="239" height="268" fill="none" xmlns="http://www.w3.org/2000/svg"><g filter="url(#filter0_dddddd)"><path opacity=".15" d="M150.181 7.004H120.63v72.499h29.551v-72.5z" fill="url(#paint0_linear)"/><path d="M149.485 7.835l-.556.738" stroke="#424242" stroke-linecap="round" stroke-linejoin="round"/><path d="M147.849 10.007l-25.438 33.702" stroke="#424242" stroke-linecap="round" stroke-linejoin="round" stroke-dasharray="5.85 5.85"/><path d="M121.868 44.427l-.553.735.586.698" stroke="#424242" stroke-linecap="round" stroke-linejoin="round"/><path d="M123.076 47.258l25.249 30.02" stroke="#424242" stroke-linecap="round" stroke-linejoin="round" stroke-dasharray="6 6"/><path d="M148.911 77.977l.588.695m-28.184 0l.192-.968" stroke="#424242" stroke-linecap="round" stroke-linejoin="round"/><path d="M121.899 75.735l13.12-65.944" stroke="#424242" stroke-linecap="round" stroke-linejoin="round" stroke-dasharray="6.09 6.09"/><path d="M135.213 8.806l.195-.971.191.971" stroke="#424242" stroke-linecap="round" stroke-linejoin="round"/><path d="M135.99 10.775l13.12 65.945" stroke="#424242" stroke-linecap="round" stroke-linejoin="round" stroke-dasharray="6.09 6.09"/><path d="M149.304 77.704l.195.968" stroke="#424242" stroke-linecap="round" stroke-linejoin="round"/><path opacity=".15" d="M116.801 6.748H88.206v73.058H116.8V6.748z" fill="url(#paint1_linear)"/><path d="M85.196 3.09v80.328h68.313V3.09H85.196zm30.918 75.825H88.889V7.626h27.228l-.003 71.289zM151 80.5h-31.192V5.587H151v74.914z" fill="#E6E6E6"/><path d="M152.509 4.174h-34.202l3.009 3.661h28.169l3.024-3.661z" fill="url(#paint2_linear)"/><path d="M118.307 4.178V82.33l3.009-3.659V7.836l-3.009-3.658z" fill="url(#paint3_linear)"/><path d="M118.307 82.333h34.202l-3.01-3.661h-28.172l-3.02 3.661z" fill="url(#paint4_linear)"/><path d="M152.508 82.33V4.178l-3.009 3.661v70.833l3.009 3.659z" fill="url(#paint5_linear)"/><path d="M116.007 7.759v71.036H88.998V7.759h27.009zm.109-.133H88.889v71.302h27.227V7.626zm33.272.356v70.57h-27.963V7.982h27.963zm.109-.133h-28.182v70.836h28.182V7.849z" fill="#4D4D4D"/><path d="M150.181 7.004H120.63v72.499h29.551v-72.5zm-28.865.832l-3.009-3.658m31.192 3.658l3.009-3.658m-31.192 74.494l-3.009 3.658m31.192-3.658l3.009 3.658" stroke="#CCC" stroke-width=".2" stroke-miterlimit="10"/><path d="M149.497 7.835h-28.182v70.836h28.182V7.835z" stroke="#CCC" stroke-width=".2" stroke-miterlimit="10"/><path d="M152.399 4.323V82.21h-33.983V4.323h33.983zm.11-.133h-34.202v78.153h34.202V4.19z" fill="#CCC"/><path d="M116.116 7.626H88.889v71.302h27.227V7.626z" stroke="#CCC" stroke-width=".2" stroke-miterlimit="10"/><path d="M116.801 6.748H88.206v73.058H116.8V6.748zm-27.911.878L85.195 3.09m33.111 3.658h-1.505M88.89 78.88l-3.694 4.537m33.11-3.611h-1.505" stroke="#CCC" stroke-width=".2" stroke-miterlimit="10"/><path d="M119.959 41.062h-1.001c-.132 0-.238.13-.238.289v4.3c0 .16.106.29.238.29h1.001c.132 0 .238-.13.238-.29v-4.3c0-.16-.106-.29-.238-.29z" fill="#F2F2F2" stroke="#BDBDBD" stroke-width=".2" stroke-miterlimit="10"/><path d="M119.723 41.603h-.531c-.098 0-.178.097-.178.217v6.688c0 .119.08.216.178.216h.531c.098 0 .178-.097.178-.216V41.82c0-.12-.08-.217-.178-.217z" fill="#F2F2F2" stroke="#BDBDBD" stroke-width=".2" stroke-miterlimit="10"/><path d="M153.512 3.09H85.196L82.106 0h74.495l-3.089 3.09z" fill="url(#paint6_linear)"/><path d="M85.196 3.09v80.327l-3.09 1.763V0l3.09 3.09z" fill="url(#paint7_linear)"/><path d="M85.196 83.417h68.316l3.089 1.763H82.107l3.089-1.763z" fill="url(#paint8_linear)"/><path d="M153.513 83.417V3.09L156.602 0v85.18l-3.089-1.763z" fill="url(#paint9_linear)"/><path d="M158.708 85.18H80V88h78.708v-2.82z" fill="url(#paint10_linear)"/><path d="M152.897 7.948h-.241c-.081 0-.147.08-.147.18v4.223c0 .1.066.18.147.18h.241c.082 0 .148-.08.148-.18V8.128c0-.1-.066-.18-.148-.18z" fill="url(#paint11_linear)"/><path d="M152.897 73.564h-.241c-.081 0-.147.08-.147.18v4.223c0 .099.066.18.147.18h.241c.082 0 .148-.081.148-.18v-4.224c0-.1-.066-.18-.148-.18z" fill="url(#paint12_linear)"/></g><defs><linearGradient id="paint0_linear" x1="146.717" y1="81.036" x2="115.06" y2="9.469" gradientUnits="userSpaceOnUse"><stop stop-color="#CCE0F4"/><stop offset=".12" stop-color="#C3DEF4"/><stop offset=".33" stop-color="#A9DAF4"/><stop offset=".59" stop-color="#80D3F4"/><stop offset=".9" stop-color="#47C8F3"/><stop offset="1" stop-color="#33C5F3"/></linearGradient><linearGradient id="paint1_linear" x1="3810.49" y1="17827" x2="-5578.87" y2="7729.95" gradientUnits="userSpaceOnUse"><stop stop-color="#CCE0F4"/><stop offset=".12" stop-color="#C3DEF4"/><stop offset=".33" stop-color="#A9DAF4"/><stop offset=".59" stop-color="#80D3F4"/><stop offset=".9" stop-color="#47C8F3"/><stop offset="1" stop-color="#33C5F3"/></linearGradient><linearGradient id="paint2_linear" x1="135.408" y1="7.835" x2="135.408" y2="4.174" gradientUnits="userSpaceOnUse"><stop stop-color="#E6E6E6"/><stop offset=".63" stop-color="#E4E4E4"/><stop offset=".86" stop-color="#DDD"/><stop offset="1" stop-color="#D4D4D4"/></linearGradient><linearGradient id="paint3_linear" x1="-6456.47" y1="-718.09" x2="-7163.77" y2="-718.09" gradientUnits="userSpaceOnUse"><stop stop-color="#E6E6E6"/><stop offset=".63" stop-color="#E4E4E4"/><stop offset=".86" stop-color="#DDD"/><stop offset="1" stop-color="#D4D4D4"/></linearGradient><linearGradient id="paint4_linear" x1="-12606.1" y1="764.504" x2="-12606.1" y2="804.818" gradientUnits="userSpaceOnUse"><stop stop-color="#E6E6E6"/><stop offset=".63" stop-color="#E4E4E4"/><stop offset=".86" stop-color="#DDD"/><stop offset="1" stop-color="#D4D4D4"/></linearGradient><linearGradient id="paint5_linear" x1="-3859.4" y1="1684.6" x2="-3152.11" y2="1684.6" gradientUnits="userSpaceOnUse"><stop stop-color="#E6E6E6"/><stop offset=".63" stop-color="#E4E4E4"/><stop offset=".86" stop-color="#DDD"/><stop offset="1" stop-color="#D4D4D4"/></linearGradient><linearGradient id="paint6_linear" x1="119.354" y1="0" x2="119.354" y2="3.09" gradientUnits="userSpaceOnUse"><stop stop-color="#E6E6E6"/><stop offset="1" stop-color="#C9C9C9"/></linearGradient><linearGradient id="paint7_linear" x1="2043" y1="-292.404" x2="2834.22" y2="-292.404" gradientUnits="userSpaceOnUse"><stop stop-color="#E6E6E6"/><stop offset="1" stop-color="#C9C9C9"/></linearGradient><linearGradient id="paint8_linear" x1="-6673.53" y1="402.229" x2="-6673.53" y2="392.887" gradientUnits="userSpaceOnUse"><stop stop-color="#E6E6E6"/><stop offset="1" stop-color="#C9C9C9"/></linearGradient><linearGradient id="paint9_linear" x1="2305.29" y1="1422.7" x2="1513.37" y2="1422.7" gradientUnits="userSpaceOnUse"><stop stop-color="#E6E6E6"/><stop offset="1" stop-color="#C9C9C9"/></linearGradient><linearGradient id="paint10_linear" x1="119.354" y1="85.18" x2="119.354" y2="88" gradientUnits="userSpaceOnUse"><stop stop-color="#F2F2F2"/><stop offset=".75" stop-color="#D4D4D4"/><stop offset="1" stop-color="#C9C9C9"/></linearGradient><linearGradient id="paint11_linear" x1="299.16" y1="149.051" x2="298.114" y2="149.051" gradientUnits="userSpaceOnUse"><stop stop-color="#E6E6E6"/><stop offset="1" stop-color="#C9C9C9"/></linearGradient><linearGradient id="paint12_linear" x1="299.16" y1="1118.85" x2="298.114" y2="1118.85" gradientUnits="userSpaceOnUse"><stop stop-color="#E6E6E6"/><stop offset="1" stop-color="#C9C9C9"/></linearGradient><filter id="filter0_dddddd" x="0" y="0" width="238.708" height="268" filterUnits="userSpaceOnUse" color-interpolation-filters="sRGB"><feFlood flood-opacity="0" result="BackgroundImageFix"/><feColorMatrix in="SourceAlpha" values="0 0 0 0 0 0 0 0 0 0 0 0 0 0 0 0 0 0 127 0" result="hardAlpha"/><feOffset dy="2.767"/><feGaussianBlur stdDeviation="1.107"/><feColorMatrix values="0 0 0 0 0 0 0 0 0 0 0 0 0 0 0 0 0 0 0.0337375 0"/><feBlend in2="BackgroundImageFix" result="effect1_dropShadow"/><feColorMatrix in="SourceAlpha" values="0 0 0 0 0 0 0 0 0 0 0 0 0 0 0 0 0 0 127 0" result="hardAlpha"/><feOffset dy="6.65"/><feGaussianBlur stdDeviation="2.66"/><feColorMatrix values="0 0 0 0 0 0 0 0 0 0 0 0 0 0 0 0 0 0 0.0484671 0"/><feBlend in2="effect1_dropShadow" result="effect2_dropShadow"/><feColorMatrix in="SourceAlpha" values="0 0 0 0 0 0 0 0 0 0 0 0 0 0 0 0 0 0 127 0" result="hardAlpha"/><feOffset dy="12.522"/><feGaussianBlur stdDeviation="5.009"/><feColorMatrix values="0 0 0 0 0 0 0 0 0 0 0 0 0 0 0 0 0 0 0.06 0"/><feBlend in2="effect2_dropShadow" result="effect3_dropShadow"/><feColorMatrix in="SourceAlpha" values="0 0 0 0 0 0 0 0 0 0 0 0 0 0 0 0 0 0 127 0" result="hardAlpha"/><feOffset dy="22.336"/><feGaussianBlur stdDeviation="8.935"/><feColorMatrix values="0 0 0 0 0 0 0 0 0 0 0 0 0 0 0 0 0 0 0.0715329 0"/><feBlend in2="effect3_dropShadow" result="effect4_dropShadow"/><feColorMatrix in="SourceAlpha" values="0 0 0 0 0 0 0 0 0 0 0 0 0 0 0 0 0 0 127 0" result="hardAlpha"/><feOffset dy="41.778"/><feGaussianBlur stdDeviation="16.711"/><feColorMatrix values="0 0 0 0 0 0 0 0 0 0 0 0 0 0 0 0 0 0 0.0862625 0"/><feBlend in2="effect4_dropShadow" result="effect5_dropShadow"/><feColorMatrix in="SourceAlpha" values="0 0 0 0 0 0 0 0 0 0 0 0 0 0 0 0 0 0 127 0" result="hardAlpha"/><feOffset dy="100"/><feGaussianBlur stdDeviation="40"/><feColorMatrix values="0 0 0 0 0 0 0 0 0 0 0 0 0 0 0 0 0 0 0.12 0"/><feBlend in2="effect5_dropShadow" result="effect6_dropShadow"/><feBlend in="SourceGraphic" in2="effect6_dropShadow" result="shape"/></filter></defs></svg>