<svg width="125" height="140" fill="none" xmlns="http://www.w3.org/2000/svg"><path opacity=".15" d="M111.46 11.143H64.53v115.339h46.93V11.142z" fill="url(#paint0_linear)"/><path d="M110.352 12.465l-.883 1.174" stroke="#424242" stroke-width=".875" stroke-linecap="round" stroke-linejoin="round"/><path d="M107.753 15.92L67.354 69.537" stroke="#424242" stroke-width=".875" stroke-linecap="round" stroke-linejoin="round" stroke-dasharray="5.12 5.12"/><path d="M66.494 70.68l-.878 1.169.93 1.111" stroke="#424242" stroke-width=".875" stroke-linecap="round" stroke-linejoin="round"/><path d="M68.41 75.182l40.099 47.76" stroke="#424242" stroke-width=".875" stroke-linecap="round" stroke-linejoin="round" stroke-dasharray="5.25 5.25"/><path d="M109.438 124.053l.935 1.106m-44.757.001l.304-1.54" stroke="#424242" stroke-width=".875" stroke-linecap="round" stroke-linejoin="round"/><path d="M66.54 120.486l20.837-104.91" stroke="#424242" stroke-width=".875" stroke-linecap="round" stroke-linejoin="round" stroke-dasharray="5.33 5.33"/><path d="M87.687 14.01l.308-1.545.304 1.545" stroke="#424242" stroke-width=".875" stroke-linecap="round" stroke-linejoin="round"/><path d="M88.92 17.143l20.836 104.911" stroke="#424242" stroke-width=".875" stroke-linecap="round" stroke-linejoin="round" stroke-dasharray="5.33 5.33"/><path d="M110.066 123.62l.308 1.54" stroke="#424242" stroke-width=".875" stroke-linecap="round" stroke-linejoin="round"/><path opacity=".15" d="M58.445 10.734H13.032v116.229h45.413V10.734z" fill="url(#paint1_linear)"/><path d="M8.251 4.915v127.794h108.492V4.915H8.251zm49.103 120.63H14.119V12.132h43.24l-.003 113.413zm55.405 2.524H63.221V8.889h49.538v119.18z" fill="#E6E6E6"/><path d="M115.152 6.64H60.834l4.78 5.825h44.736l4.802-5.825z" fill="url(#paint2_linear)"/><path d="M60.834 6.646V130.98l4.78-5.82V12.465l-4.78-5.82z" fill="url(#paint3_linear)"/><path d="M60.834 130.985h54.318l-4.78-5.825h-44.74l-4.798 5.825z" fill="url(#paint4_linear)"/><path d="M115.153 130.98V6.646l-4.78 5.825V125.16l4.78 5.82z" fill="url(#paint5_linear)"/><path d="M57.185 12.344v113.011H14.292V12.344h42.893zm.174-.212H14.12v113.435h43.24V12.132zm52.841.566v112.271H65.79V12.698h44.41zm.174-.212H65.616V125.18h44.758V12.486z" fill="#4D4D4D"/><path d="M111.46 11.143H64.53v115.339h46.93V11.142zm-45.846 1.323l-4.78-5.82m49.539 5.82l4.78-5.82M65.614 125.16l-4.78 5.82m49.539-5.82l4.78 5.82" stroke="#CCC" stroke-width=".175" stroke-miterlimit="10"/><path d="M110.374 12.465H65.616v112.694h44.758V12.465z" stroke="#CCC" stroke-width=".175" stroke-miterlimit="10"/><path d="M114.978 6.879v123.91h-53.97V6.879h53.97zm.174-.212H60.834v124.334h54.318V6.667z" fill="#CCC"/><path d="M57.36 12.132H14.117v113.435H57.36V12.132z" stroke="#CCC" stroke-width=".175" stroke-miterlimit="10"/><path d="M58.445 10.734H13.032v116.229h45.413V10.734zm-44.327 1.398L8.25 4.915m52.586 5.819h-2.39M14.118 125.493L8.25 132.71m52.586-5.747h-2.39" stroke="#CCC" stroke-width=".175" stroke-miterlimit="10"/><path d="M63.46 65.325h-1.59c-.208 0-.378.206-.378.46v6.841c0 .255.17.46.378.46h1.59c.21 0 .379-.205.379-.46v-6.84c0-.255-.17-.46-.378-.46z" fill="#F2F2F2" stroke="#BDBDBD" stroke-width=".175" stroke-miterlimit="10"/><path d="M63.086 66.188h-.843c-.156 0-.283.153-.283.343v10.64c0 .19.127.344.283.344h.843c.156 0 .282-.154.282-.344v-10.64c0-.19-.126-.344-.282-.344z" fill="#F2F2F2" stroke="#BDBDBD" stroke-width=".175" stroke-miterlimit="10"/><path d="M116.749 4.915H8.253L3.347 0h118.308l-4.906 4.915z" fill="url(#paint6_linear)"/><path d="M8.253 4.915V132.71l-4.906 2.804V0l4.906 4.915z" fill="url(#paint7_linear)"/><path d="M8.253 132.709h108.496l4.906 2.804H3.347l4.906-2.804z" fill="url(#paint8_linear)"/><path d="M116.748 132.709V4.915L121.654 0v135.513l-4.906-2.804z" fill="url(#paint9_linear)"/><path d="M125 135.514H0V140h125v-4.486z" fill="url(#paint10_linear)"/><path d="M115.771 12.645h-.382c-.13 0-.235.127-.235.285v6.72c0 .157.105.285.235.285h.382c.13 0 .235-.128.235-.285v-6.72c0-.158-.105-.285-.235-.285z" fill="url(#paint11_linear)"/><path d="M115.771 117.033h-.382c-.13 0-.235.128-.235.286v6.719c0 .158.105.286.235.286h.382c.13 0 .235-.128.235-.286v-6.719c0-.158-.105-.286-.235-.286z" fill="url(#paint12_linear)"/><defs><linearGradient id="paint0_linear" x1="105.959" y1="128.921" x2="55.536" y2="15.13" gradientUnits="userSpaceOnUse"><stop stop-color="#CCE0F4"/><stop offset=".12" stop-color="#C3DEF4"/><stop offset=".33" stop-color="#A9DAF4"/><stop offset=".59" stop-color="#80D3F4"/><stop offset=".9" stop-color="#47C8F3"/><stop offset="1" stop-color="#33C5F3"/></linearGradient><linearGradient id="paint1_linear" x1="5924.55" y1="28361.1" x2="-9014.92" y2="12323.5" gradientUnits="userSpaceOnUse"><stop stop-color="#CCE0F4"/><stop offset=".12" stop-color="#C3DEF4"/><stop offset=".33" stop-color="#A9DAF4"/><stop offset=".59" stop-color="#80D3F4"/><stop offset=".9" stop-color="#47C8F3"/><stop offset="1" stop-color="#33C5F3"/></linearGradient><linearGradient id="paint2_linear" x1="87.993" y1="12.465" x2="87.993" y2="6.64" gradientUnits="userSpaceOnUse"><stop stop-color="#E6E6E6"/><stop offset=".63" stop-color="#E4E4E4"/><stop offset=".86" stop-color="#DDD"/><stop offset="1" stop-color="#D4D4D4"/></linearGradient><linearGradient id="paint3_linear" x1="-10380.9" y1="-1142.42" x2="-11504.1" y2="-1142.42" gradientUnits="userSpaceOnUse"><stop stop-color="#E6E6E6"/><stop offset=".63" stop-color="#E4E4E4"/><stop offset=".86" stop-color="#DDD"/><stop offset="1" stop-color="#D4D4D4"/></linearGradient><linearGradient id="paint4_linear" x1="-20147.3" y1="1216.28" x2="-20147.3" y2="1280.41" gradientUnits="userSpaceOnUse"><stop stop-color="#E6E6E6"/><stop offset=".63" stop-color="#E4E4E4"/><stop offset=".86" stop-color="#DDD"/><stop offset="1" stop-color="#D4D4D4"/></linearGradient><linearGradient id="paint5_linear" x1="-6256.33" y1="2680.04" x2="-5133.05" y2="2680.04" gradientUnits="userSpaceOnUse"><stop stop-color="#E6E6E6"/><stop offset=".63" stop-color="#E4E4E4"/><stop offset=".86" stop-color="#DDD"/><stop offset="1" stop-color="#D4D4D4"/></linearGradient><linearGradient id="paint6_linear" x1="62.501" y1="0" x2="62.501" y2="4.915" gradientUnits="userSpaceOnUse"><stop stop-color="#E6E6E6"/><stop offset="1" stop-color="#C9C9C9"/></linearGradient><linearGradient id="paint7_linear" x1="3117.53" y1="-465.187" x2="4374.1" y2="-465.187" gradientUnits="userSpaceOnUse"><stop stop-color="#E6E6E6"/><stop offset="1" stop-color="#C9C9C9"/></linearGradient><linearGradient id="paint8_linear" x1="-10725.6" y1="639.91" x2="-10725.6" y2="625.048" gradientUnits="userSpaceOnUse"><stop stop-color="#E6E6E6"/><stop offset="1" stop-color="#C9C9C9"/></linearGradient><linearGradient id="paint9_linear" x1="3534.09" y1="2263.38" x2="2276.4" y2="2263.38" gradientUnits="userSpaceOnUse"><stop stop-color="#E6E6E6"/><stop offset="1" stop-color="#C9C9C9"/></linearGradient><linearGradient id="paint10_linear" x1="62.5" y1="135.514" x2="62.5" y2="140" gradientUnits="userSpaceOnUse"><stop stop-color="#F2F2F2"/><stop offset=".75" stop-color="#D4D4D4"/><stop offset="1" stop-color="#C9C9C9"/></linearGradient><linearGradient id="paint11_linear" x1="348.056" y1="237.126" x2="346.395" y2="237.126" gradientUnits="userSpaceOnUse"><stop stop-color="#E6E6E6"/><stop offset="1" stop-color="#C9C9C9"/></linearGradient><linearGradient id="paint12_linear" x1="348.056" y1="1779.98" x2="346.395" y2="1779.98" gradientUnits="userSpaceOnUse"><stop stop-color="#E6E6E6"/><stop offset="1" stop-color="#C9C9C9"/></linearGradient></defs></svg>