<svg width="20" height="20" fill="none" xmlns="http://www.w3.org/2000/svg"><path d="M19.724 18.263l-3.702-3.697c2.832-3.524 2.559-8.735-.67-11.936A8.949 8.949 0 008.992 0c-2.41 0-4.645.943-6.359 2.63A8.93 8.93 0 000 8.983c0 2.407.944 4.64 2.633 6.352a8.949 8.949 0 006.36 2.63 9.034 9.034 0 005.613-1.96l3.702 3.697a.982.982 0 00.695.298c.273 0 .522-.1.696-.298.397-.422.397-1.042.025-1.439zm-3.726-9.305a6.94 6.94 0 01-2.037 4.938 6.955 6.955 0 01-4.944 2.034 6.956 6.956 0 01-4.943-2.034 6.94 6.94 0 01-2.037-4.938A6.94 6.94 0 014.074 4.02a6.956 6.956 0 014.943-2.035c1.863 0 3.627.72 4.944 2.035a6.94 6.94 0 012.037 4.938z" fill="#000"/></svg>